<?xml version="1.0" encoding="UTF-8"?>
<svg width="64" height="64" viewBox="0 0 64 64" xmlns="http://www.w3.org/2000/svg">
  <defs>
    <!-- Gradient definitions for cyberpunk glow effects -->
    <linearGradient id="bgGradient" x1="0%" y1="0%" x2="100%" y2="100%">
      <stop offset="0%" style="stop-color:#0a0a0f;stop-opacity:1" />
      <stop offset="50%" style="stop-color:#1a0d2e;stop-opacity:1" />
      <stop offset="100%" style="stop-color:#16213e;stop-opacity:1" />
    </linearGradient>
    
    <linearGradient id="neonGlow" x1="0%" y1="0%" x2="100%" y2="100%">
      <stop offset="0%" style="stop-color:#00ffff;stop-opacity:1" />
      <stop offset="50%" style="stop-color:#ff00ff;stop-opacity:1" />
      <stop offset="100%" style="stop-color:#00ff41;stop-opacity:1" />
    </linearGradient>
    
    <filter id="glow">
      <feGaussianBlur stdDeviation="2" result="coloredBlur"/>
      <feMerge> 
        <feMergeNode in="coloredBlur"/>
        <feMergeNode in="SourceGraphic"/>
      </feMerge>
    </filter>
  </defs>
  
  <!-- Background circle -->
  <circle cx="32" cy="32" r="30" fill="url(#bgGradient)" stroke="#7b68ee" stroke-width="2"/>
  
  <!-- Main AI brain/circuit design -->
  <g filter="url(#glow)">
    <!-- Central processor core -->
    <rect x="26" y="26" width="12" height="12" rx="2" fill="#00ffff" stroke="#ff00ff" stroke-width="1"/>
    
    <!-- Circuit lines extending from core -->
    <line x1="32" y1="26" x2="32" y2="16" stroke="#00ff41" stroke-width="2"/>
    <line x1="32" y1="38" x2="32" y2="48" stroke="#00ff41" stroke-width="2"/>
    <line x1="26" y1="32" x2="16" y2="32" stroke="#00ff41" stroke-width="2"/>
    <line x1="38" y1="32" x2="48" y2="32" stroke="#00ff41" stroke-width="2"/>
    
    <!-- Diagonal circuit connections -->
    <line x1="26" y1="26" x2="20" y2="20" stroke="#ff0080" stroke-width="1.5"/>
    <line x1="38" y1="26" x2="44" y2="20" stroke="#ff0080" stroke-width="1.5"/>
    <line x1="26" y1="38" x2="20" y2="44" stroke="#ff0080" stroke-width="1.5"/>
    <line x1="38" y1="38" x2="44" y2="44" stroke="#ff0080" stroke-width="1.5"/>
    
    <!-- Terminal nodes -->
    <circle cx="32" cy="16" r="2" fill="#00ff41"/>
    <circle cx="32" cy="48" r="2" fill="#00ff41"/>
    <circle cx="16" cy="32" r="2" fill="#00ff41"/>
    <circle cx="48" cy="32" r="2" fill="#00ff41"/>
    
    <!-- Corner nodes -->
    <circle cx="20" cy="20" r="1.5" fill="#ff0080"/>
    <circle cx="44" cy="20" r="1.5" fill="#ff0080"/>
    <circle cx="20" cy="44" r="1.5" fill="#ff0080"/>
    <circle cx="44" cy="44" r="1.5" fill="#ff0080"/>
    
    <!-- Data flow indicators -->
    <rect x="30" y="14" width="4" height="2" rx="1" fill="#ffff00"/>
    <rect x="30" y="48" width="4" height="2" rx="1" fill="#ffff00"/>
    <rect x="14" y="30" width="2" height="4" rx="1" fill="#ffff00"/>
    <rect x="48" y="30" width="2" height="4" rx="1" fill="#ffff00"/>
  </g>
  
  <!-- Outer ring with segments -->
  <circle cx="32" cy="32" r="28" fill="none" stroke="#9370db" stroke-width="1" stroke-dasharray="4,2"/>
  
  <!-- Corner accent triangles -->
  <polygon points="8,8 16,8 8,16" fill="#ff00ff" opacity="0.6"/>
  <polygon points="56,8 48,8 56,16" fill="#ff00ff" opacity="0.6"/>
  <polygon points="8,56 16,56 8,48" fill="#ff00ff" opacity="0.6"/>
  <polygon points="56,56 48,56 56,48" fill="#ff00ff" opacity="0.6"/>
</svg>
